<svg width="39" height="47" viewBox="0 0 39 47" fill="none" xmlns="http://www.w3.org/2000/svg">
<g filter="url(#filter0_d_67_118)">
<path d="M7.875 39H31.125C32.1527 39 33.1383 38.5891 33.865 37.8577C34.5917 37.1263 35 36.1343 35 35.1V3.9C35 2.86566 34.5917 1.87368 33.865 1.14228C33.1383 0.410892 32.1527 0 31.125 0H7.875C6.84729 0 5.86166 0.410892 5.13496 1.14228C4.40826 1.87368 4 2.86566 4 3.9V35.1C4 36.1343 4.40826 37.1263 5.13496 37.8577C5.86166 38.5891 6.84729 39 7.875 39ZM13.6875 33.15H9.8125V29.25H13.6875V33.15ZM13.6875 25.35H9.8125V21.45H13.6875V25.35ZM13.6875 17.55H9.8125V13.65H13.6875V17.55ZM21.4375 33.15H17.5625V29.25H21.4375V33.15ZM21.4375 25.35H17.5625V21.45H21.4375V25.35ZM21.4375 17.55H17.5625V13.65H21.4375V17.55ZM29.1875 33.15H25.3125V21.45H29.1875V33.15ZM29.1875 17.55H25.3125V13.65H29.1875V17.55ZM7.875 3.9H31.125V9.75H7.875V3.9Z" fill="black"/>
</g>
<defs>
<filter id="filter0_d_67_118" x="0" y="0" width="39" height="47" filterUnits="userSpaceOnUse" color-interpolation-filters="sRGB">
<feFlood flood-opacity="0" result="BackgroundImageFix"/>
<feColorMatrix in="SourceAlpha" type="matrix" values="0 0 0 0 0 0 0 0 0 0 0 0 0 0 0 0 0 0 127 0" result="hardAlpha"/>
<feOffset dy="4"/>
<feGaussianBlur stdDeviation="2"/>
<feComposite in2="hardAlpha" operator="out"/>
<feColorMatrix type="matrix" values="0 0 0 0 0 0 0 0 0 0 0 0 0 0 0 0 0 0 0.25 0"/>
<feBlend mode="normal" in2="BackgroundImageFix" result="effect1_dropShadow_67_118"/>
<feBlend mode="normal" in="SourceGraphic" in2="effect1_dropShadow_67_118" result="shape"/>
</filter>
</defs>
</svg>
