<svg width="31" height="31" viewBox="0 0 31 31" fill="none" xmlns="http://www.w3.org/2000/svg">
<path d="M30.5982 16.0022L16.6498 0.490931C16.0624 -0.163644 14.9341 -0.163644 14.3467 0.490931L0.39828 16.0022C0.19751 16.2249 0.0657258 16.5012 0.0189514 16.7975C-0.027823 17.0938 0.0124277 17.3974 0.13481 17.6712C0.382782 18.2311 0.93762 18.591 1.5498 18.591H4.64946V29.4489C4.64946 29.8603 4.81274 30.2548 5.10339 30.5457C5.39404 30.8366 5.78824 31 6.19928 31H10.8488C11.2598 31 11.654 30.8366 11.9447 30.5457C12.2353 30.2548 12.3986 29.8603 12.3986 29.4489V23.2444H18.5979V29.4489C18.5979 29.8603 18.7612 30.2548 19.0518 30.5457C19.3425 30.8366 19.7367 31 20.1477 31H24.7972C25.2082 31 25.6024 30.8366 25.8931 30.5457C26.1837 30.2548 26.347 29.8603 26.347 29.4489V18.591H29.4467C29.7468 18.5923 30.0409 18.5061 30.2929 18.3431C30.545 18.18 30.7442 17.947 30.8663 17.6726C30.9884 17.3981 31.028 17.0941 30.9804 16.7975C30.9328 16.5009 30.8 16.2245 30.5982 16.0022Z" fill="black"/>
</svg>
