<svg width="31" height="34" viewBox="0 0 31 34" fill="none" xmlns="http://www.w3.org/2000/svg">
<path d="M31 30.6V6.8C31 4.9249 29.4552 3.4 27.5556 3.4H24.1111V0H20.6667V3.4H10.3333V0H6.88889V3.4H3.44444C1.54483 3.4 0 4.9249 0 6.8V30.6C0 32.4751 1.54483 34 3.44444 34H27.5556C29.4552 34 31 32.4751 31 30.6ZM10.3333 27.2H6.88889V23.8H10.3333V27.2ZM10.3333 20.4H6.88889V17H10.3333V20.4ZM17.2222 27.2H13.7778V23.8H17.2222V27.2ZM17.2222 20.4H13.7778V17H17.2222V20.4ZM24.1111 27.2H20.6667V23.8H24.1111V27.2ZM24.1111 20.4H20.6667V17H24.1111V20.4ZM27.5556 11.9H3.44444V8.5H27.5556V11.9Z" fill="black"/>
</svg>
