<svg width="31" height="25" viewBox="0 0 31 25" fill="none" xmlns="http://www.w3.org/2000/svg">
<path d="M0.255738 24.2984C0.544025 24.7359 1.02915 25 1.54993 25H24.7988C25.4188 25 25.9799 24.6281 26.2232 24.0531L30.873 13.1156C30.9749 12.878 31.0165 12.6186 30.9941 12.3607C30.9717 12.1029 30.8859 11.8547 30.7446 11.6386C30.6033 11.4225 30.4108 11.2452 30.1846 11.1228C29.9583 11.0004 29.7054 10.9367 29.4486 10.9375H27.8987V6.25C27.8987 4.52656 26.5084 3.125 24.7988 3.125H14.4841L10.5225 0H3.09986C1.39029 0 0 1.40156 0 3.125V23.4375H0.0108494C0.00739483 23.7424 0.0925221 24.0417 0.255738 24.2984ZM24.7988 6.25V10.9375H6.19971C5.57974 10.9375 5.01867 11.3094 4.77533 11.8844L3.09986 15.8266V6.25H24.7988Z" fill="black"/>
</svg>
