<svg width="30" height="38" viewBox="0 0 30 38" fill="none" xmlns="http://www.w3.org/2000/svg">
<path d="M30 11.4L18.75 0H3.75C2.75544 0 1.80161 0.400356 1.09835 1.11299C0.395088 1.82563 0 2.79218 0 3.8V34.2C0 35.2078 0.395088 36.1744 1.09835 36.887C1.80161 37.5996 2.75544 38 3.75 38H26.25C27.2446 38 28.1984 37.5996 28.9016 36.887C29.6049 36.1744 30 35.2078 30 34.2V11.4ZM9.375 32.3H5.625V15.2H9.375V32.3ZM16.875 32.3H13.125V20.9H16.875V32.3ZM24.375 32.3H20.625V26.6H24.375V32.3ZM18.75 13.3H16.875V3.8L26.25 13.3H18.75Z" fill="black"/>
</svg>
