<?xml version="1.0" standalone="no"?>
<!DOCTYPE svg PUBLIC "-//W3C//DTD SVG 20010904//EN"
 "http://www.w3.org/TR/2001/REC-SVG-20010904/DTD/svg10.dtd">
<svg version="1.0" xmlns="http://www.w3.org/2000/svg"
 width="512.000000pt" height="512.000000pt" viewBox="0 0 512.000000 512.000000"
 preserveAspectRatio="xMidYMid meet">

<g transform="translate(0.000000,512.000000) scale(0.100000,-0.100000)"
fill="#000000" stroke="none">
<path d="M459 4471 c-23 -18 -24 -25 -24 -133 1 -74 7 -135 18 -178 22 -81 76
-198 123 -262 19 -27 32 -53 29 -58 -4 -6 -35 -10 -70 -10 -128 0 -264 -39
-322 -93 -42 -38 -25 -83 64 -168 68 -65 138 -104 221 -123 l57 -12 8 -55 c55
-357 120 -534 238 -643 53 -50 142 -96 184 -96 30 0 307 -316 350 -400 13 -26
37 -226 56 -465 13 -173 17 -572 6 -722 -11 -155 -14 -153 176 -153 131 0 146
2 162 20 12 14 37 113 81 336 35 175 65 319 67 321 6 5 17 -299 17 -468 0
-143 2 -159 21 -183 l20 -26 173 0 c159 0 174 2 191 19 13 15 27 85 56 268 44
285 85 596 95 731 l7 93 -32 39 c-17 21 -31 40 -31 42 0 2 80 2 178 0 97 -2
267 2 377 7 l200 10 35 -42 c48 -59 189 -199 223 -223 l29 -20 -41 -435 c-40
-423 -40 -435 -22 -459 18 -25 19 -25 193 -28 201 -3 201 -3 218 86 16 88 78
510 101 687 11 94 22 171 24 173 1 1 14 -3 28 -9 24 -11 26 -16 21 -53 -9 -76
-74 -794 -74 -820 0 -14 9 -35 20 -46 18 -18 33 -20 186 -20 93 0 174 4 184
10 26 14 33 45 74 320 101 669 116 891 81 1184 -23 193 -17 415 15 566 15 71
24 159 29 275 l6 170 33 -55 c65 -110 110 -290 137 -545 22 -212 21 -225 -20
-269 -45 -48 -65 -117 -65 -226 0 -97 17 -167 61 -251 61 -114 119 -148 166
-97 79 86 127 215 128 343 0 119 -18 177 -72 233 -37 40 -43 51 -43 89 0 82
-31 338 -55 460 -54 264 -139 421 -268 488 -44 23 -59 38 -82 83 -59 112 -170
193 -312 229 -98 25 -387 22 -657 -6 -305 -31 -542 -41 -886 -34 -295 6 -632
-6 -780 -27 -36 -5 -69 -5 -73 -1 -5 5 7 31 26 57 95 134 140 275 141 442 1
108 0 115 -23 133 -48 39 -50 38 -219 -149 -46 -51 -121 -121 -166 -157 l-83
-64 -59 9 c-76 13 -252 13 -328 0 l-60 -10 -55 42 c-58 43 -210 192 -296 291
-55 62 -78 69 -116 38z m268 -394 l42 -36 -39 -31 -39 -31 -25 38 c-27 40 -76
154 -76 175 0 7 21 -8 48 -33 26 -25 66 -62 89 -82z m958 42 c-14 -35 -37 -81
-51 -102 l-25 -38 -40 32 -40 32 38 31 c21 17 61 52 88 78 28 26 51 43 53 38
2 -4 -9 -37 -23 -71z m-308 -163 c104 -33 177 -114 208 -231 47 -179 -12 -608
-107 -788 -40 -75 -112 -140 -175 -158 -70 -20 -254 -18 -319 4 -71 24 -129
85 -174 182 -97 206 -144 609 -91 777 39 123 117 195 242 223 86 20 342 14
416 -9z m2602 -172 c33 -4 61 -10 61 -13 0 -3 -18 -19 -40 -34 -64 -46 -253
-231 -373 -366 -199 -227 -224 -249 -296 -271 -169 -53 -371 -1 -452 116 -42
61 -57 111 -75 239 -8 60 -24 143 -35 184 -11 40 -18 75 -17 76 2 1 111 8 243
14 132 6 330 20 440 31 313 31 428 36 544 24z m-1371 -102 c26 -60 39 -117 58
-252 25 -179 65 -270 157 -357 105 -100 220 -138 392 -130 122 5 215 32 280
81 20 15 84 82 142 149 150 172 394 413 486 482 l78 58 28 -27 c124 -119 145
-358 66 -781 -17 -92 -20 -329 -5 -455 27 -241 30 -312 20 -448 -13 -160 -58
-520 -98 -777 l-28 -180 -72 -3 c-64 -3 -72 -1 -72 15 0 10 16 201 37 425 31
340 35 409 24 422 -8 9 -41 31 -75 48 -123 65 -266 238 -266 324 0 17 -9 43
-21 58 -25 32 -64 34 -111 7 -42 -25 -161 -57 -263 -71 -125 -17 -289 -29
-297 -21 -4 3 -37 76 -73 161 -178 417 -271 512 -520 527 -156 9 -320 -48
-419 -145 -67 -66 -90 -113 -90 -187 0 -105 72 -210 217 -318 59 -44 66 -52
50 -60 -55 -30 -40 -96 49 -215 l39 -52 -16 -148 c-14 -126 -54 -416 -96 -695
l-11 -77 -78 0 -77 0 -6 243 c-9 334 -27 627 -41 656 -7 16 -53 45 -141 90
-210 107 -344 208 -422 320 -60 85 -152 198 -192 235 -17 17 -31 33 -31 36 0
4 26 10 58 13 237 22 384 225 447 617 32 203 22 182 87 196 83 19 154 58 221
123 61 58 89 100 86 129 -1 9 -1 20 0 25 0 4 108 7 240 7 l239 0 20 -48z
m-2048 -47 c0 -51 -2 -55 -23 -55 -29 0 -119 44 -142 70 -17 18 -16 19 11 25
16 4 34 8 39 10 6 2 34 4 63 4 l52 1 0 -55z m1347 36 c13 -7 9 -13 -19 -34
-40 -31 -99 -57 -128 -57 -18 0 -20 6 -20 56 l0 57 76 -6 c41 -4 82 -11 91
-16z m685 -894 c48 -20 104 -79 150 -157 46 -79 172 -370 163 -378 -4 -4 -92
-8 -195 -10 l-189 -4 -132 87 c-207 135 -302 240 -284 312 14 56 128 136 232
163 54 13 211 6 255 -13z m2194 -393 c8 -58 -1 -140 -22 -190 l-17 -39 -15 35
c-24 54 -28 209 -7 251 l18 33 18 -22 c10 -13 21 -43 25 -68z m-1126 -245 c12
-29 45 -81 72 -117 l49 -65 -11 -111 c-10 -95 -87 -656 -106 -768 l-7 -38 -73
0 c-53 0 -74 4 -74 13 1 6 18 194 39 417 22 232 35 414 30 426 -4 12 -33 36
-64 53 -60 34 -188 157 -179 172 3 5 18 9 35 9 33 0 192 34 229 49 14 5 28 10
31 10 3 1 16 -22 29 -50z m-2067 -123 c45 -29 115 -70 155 -90 39 -20 72 -39
72 -43 0 -3 -7 -14 -15 -23 -9 -10 -44 -165 -91 -401 -41 -211 -77 -392 -80
-401 -4 -14 -16 -18 -48 -18 l-42 0 0 298 c-1 264 -25 700 -41 724 -10 17 13
6 90 -46z"/>
</g>
</svg>
