<?xml version="1.0" standalone="no"?>
<!DOCTYPE svg PUBLIC "-//W3C//DTD SVG 20010904//EN"
 "http://www.w3.org/TR/2001/REC-SVG-20010904/DTD/svg10.dtd">
<svg version="1.0" xmlns="http://www.w3.org/2000/svg"
 width="512.000000pt" height="512.000000pt" viewBox="0 0 512.000000 512.000000"
 preserveAspectRatio="xMidYMid meet">

<g transform="translate(0.000000,512.000000) scale(0.100000,-0.100000)"
fill="#000000" stroke="none">
<path d="M1922 5101 c-66 -23 -117 -63 -159 -125 -49 -72 -55 -108 -51 -305 3
-168 4 -178 30 -226 30 -58 97 -124 146 -144 l34 -14 -4 -121 c-5 -173 -10
-181 -226 -401 -237 -240 -300 -327 -357 -496 -56 -163 -55 -135 -55 -1518 0
-1406 -2 -1341 62 -1465 48 -90 147 -185 238 -228 41 -20 99 -41 128 -47 36
-7 311 -11 855 -11 881 0 867 -1 989 61 130 66 247 220 277 367 8 37 11 441
11 1326 0 1380 1 1352 -55 1515 -57 169 -119 255 -357 497 -216 220 -221 228
-226 400 l-4 121 34 14 c49 20 116 86 146 144 27 49 27 53 27 250 0 189 -1
202 -23 243 -35 66 -88 119 -150 149 l-57 28 -600 2 c-561 3 -603 1 -653 -16z
m1213 -205 c57 -24 67 -57 63 -217 -3 -136 -3 -139 -31 -166 l-27 -28 -580 0
-580 0 -27 28 c-28 27 -28 30 -31 166 -4 158 6 192 61 216 48 21 1102 22 1152
1z m-144 -761 c11 -226 38 -274 313 -554 179 -182 196 -203 238 -288 88 -176
83 -76 83 -1538 l0 -1290 -26 -55 c-37 -80 -81 -125 -157 -162 l-67 -33 -815
0 -815 0 -67 33 c-76 37 -120 82 -157 162 l-26 55 0 1290 c0 1462 -5 1362 82
1538 43 84 61 106 238 287 277 283 306 334 312 545 2 66 6 126 8 133 4 10 94
12 427 10 l423 -3 6 -130z"/>
</g>
</svg>
